<?xml version="1.0" encoding="utf-8"?>
<svg viewBox="235.7073 152.2212 137.3478 38.4476" xmlns="http://www.w3.org/2000/svg" xmlns:bx="https://boxy-svg.com">
  <defs>
    <style bx:fonts="Acme">@import url(https://fonts.googleapis.com/css2?family=Acme%3Aital%2Cwght%400%2C400&amp;display=swap);</style>
  </defs>
  <g transform="matrix(1, 0, 0, 1, 62.72401521688721, 25.089609519982467)">
    <g transform="matrix(0.009383, 0, 0, -0.007478, 143.705858, 188.675433)" fill="#C5C5C5" stroke="none" style="">
      <path d="M 3606.348 8081.478 C 3827.323 8025.548 4085.127 7883.271 4246.608 7728.237 L 4302.324 7674.27 L 4254.163 7656.608 C 4226.777 7647.777 4172.95 7621.283 4134.232 7599.696 L 4063.407 7558.485 L 4019.023 7601.659 C 3951.975 7666.42 3878.317 7721.368 3799.937 7764.542 C 3637.511 7854.815 3337.212 7915.651 3337.212 7859.721 C 3337.212 7851.871 3357.043 7813.604 3380.652 7775.336 C 3437.312 7685.063 3480.751 7580.072 3512.859 7457.419 C 3535.523 7369.108 3538.356 7341.634 3539.3 7186.601 L 3540.244 7014.886 L 3449.588 6857.89 C 3399.538 6772.523 3350.433 6685.194 3340.99 6665.57 C 3323.047 6629.264 3323.047 6629.264 3322.103 6915.782 C 3321.158 7312.197 3302.272 7419.151 3177.619 7745.899 C 3086.019 7987.281 3098.295 8041.248 3256.944 8097.178 C 3308.882 8114.84 3507.193 8106.009 3606.348 8081.478 Z M 5862.368 7809.679 C 6011.573 7791.035 6172.11 7749.824 6335.48 7689.969 C 6496.962 7631.096 6614.059 7571.241 6752.877 7476.062 C 6886.028 7384.808 6941.744 7336.728 7120.224 7161.089 C 7225.045 7058.06 7277.928 6997.224 7318.534 6934.426 C 7372.361 6851.021 7415.801 6756.824 7416.745 6725.425 C 7416.745 6703.838 7238.266 6655.758 7064.508 6632.208 C 7022.957 6626.321 7020.124 6627.302 7026.734 6643.983 C 7029.567 6653.795 7037.122 6665.57 7042.788 6669.495 C 7049.398 6674.401 7049.398 6677.345 7041.844 6677.345 C 7034.289 6677.345 7037.122 6685.194 7048.454 6696.969 C 7065.452 6714.631 7104.17 6728.368 7144.776 6730.331 C 7163.663 6730.331 7159.886 6757.805 7132.5 6820.603 C 7114.558 6860.834 6954.965 7029.604 6812.37 7159.126 C 6628.224 7326.916 6430.858 7432.888 6160.778 7510.405 C 5954.913 7568.297 5890.698 7580.072 5711.274 7588.903 C 5431.75 7602.64 5237.217 7579.091 4964.304 7497.649 C 4555.406 7374.996 4125.733 7068.853 3890.593 6731.312 C 3737.611 6511.517 3685.672 6406.526 3629.012 6202.431 C 3575.185 6007.167 3558.187 5853.115 3573.296 5668.645 C 3599.738 5327.178 3718.724 5034.773 3938.754 4767.88 C 4059.629 4620.696 4255.107 4447.019 4428.865 4334.178 C 4517.633 4276.286 4551.629 4262.549 4542.185 4288.06 C 4539.352 4297.873 4533.686 4378.333 4529.909 4468.606 C 4518.577 4791.429 4585.625 5048.51 4750.884 5311.479 C 4841.54 5455.719 5009.632 5633.321 5151.282 5733.406 C 5259.881 5809.941 5563.957 5946.332 5773.6 6013.055 C 5982.298 6079.778 6298.651 6174.957 6491.296 6230.887 C 6598.006 6261.305 6727.38 6298.591 6779.318 6314.291 C 6873.752 6342.747 7189.16 6431.057 7343.087 6472.268 C 7404.469 6488.949 7429.022 6491.893 7436.576 6484.043 C 7444.131 6476.193 7441.298 6445.775 7426.189 6372.183 C 7351.586 6009.13 7190.104 5728.499 6836.923 5352.69 C 6743.433 5252.605 6630.113 5140.745 6584.785 5102.478 C 6328.87 4888.57 6268.432 4833.622 6159.834 4716.856 C 6036.125 4585.372 5958.69 4473.512 5909.584 4361.652 C 5870.867 4270.398 5840.648 4211.525 5784.932 4116.346 C 5758.491 4070.228 5732.994 4027.054 5729.216 4020.186 C 5715.051 3995.655 5642.337 3979.956 5427.973 3953.463 C 5253.271 3932.857 5187.167 3928.932 5084.234 3932.857 C 4961.471 3938.744 4779.214 3966.218 4707.444 3989.768 C 4634.73 4014.299 4458.139 4087.89 4395.813 4121.252 C 4183.338 4232.131 3865.096 4499.024 3706.448 4700.175 C 3600.682 4833.622 3464.698 5089.722 3419.369 5239.849 C 3342.878 5493.987 3324.936 5672.57 3350.433 5916.895 C 3388.206 6283.873 3503.415 6579.222 3728.167 6888.308 C 3835.822 7036.473 4066.24 7266.08 4225.833 7385.789 C 4510.078 7597.734 4884.035 7751.786 5235.328 7800.848 C 5497.854 7837.153 5633.838 7839.115 5862.368 7809.679 Z M 5688.61 6652.814 C 5747.159 6621.415 5772.656 6541.935 5739.604 6492.874 C 5732.049 6481.099 5707.496 6461.475 5686.721 6450.681 C 5597.009 6402.601 5499.742 6463.437 5499.742 6567.447 C 5499.742 6599.828 5529.961 6644.964 5560.18 6657.72 C 5592.287 6671.457 5659.335 6668.513 5688.61 6652.814 Z M 4944.473 6617.49 C 5094.622 6584.128 5154.115 6481.099 5103.121 6341.765 C 5053.071 6202.431 4857.594 6061.135 4611.122 5987.543 C 4502.523 5954.181 4307.046 5928.669 4206.946 5933.576 C 4062.462 5940.444 3979.361 5999.318 3979.361 6093.515 C 3980.305 6161.22 4036.965 6239.718 4152.174 6331.953 C 4273.994 6430.076 4469.471 6539.973 4600.734 6584.128 C 4719.721 6624.358 4854.761 6637.114 4944.473 6617.49 Z" style=""/>
    </g>
    <text style="fill: rgb(197, 197, 197);  font-size: 22px; white-space: pre;" transform="matrix(1, 0, 0, 1.096154, -3.584243, -11.082986)" x="222.521" y="152.778">tappedx</text>
  </g>
</svg>