<svg version="1.0" xmlns="http://www.w3.org/2000/svg"
  viewBox="0 0 1024.000000 1024.000000"
 preserveAspectRatio="xMidYMid meet">

<g transform="translate(0.000000,1024.000000) scale(0.100000,-0.100000)"
fill="#C5C5C5" stroke="none">
<path d="M3635 8081 c234 -57 507 -202 678 -360 l59 -55 -51 -18 c-29 -9 -86
-36 -127 -58 l-75 -42 -47 44 c-71 66 -149 122 -232 166 -172 92 -490 154
-490 97 0 -8 21 -47 46 -86 60 -92 106 -199 140 -324 24 -90 27 -118 28 -276
l1 -175 -96 -160 c-53 -87 -105 -176 -115 -196 -19 -37 -19 -37 -20 255 -1
404 -21 513 -153 846 -97 246 -84 301 84 358 55 18 265 9 370 -16z m2389 -277
c158 -19 328 -61 501 -122 171 -60 295 -121 442 -218 141 -93 200 -142 389
-321 111 -105 167 -167 210 -231 57 -85 103 -181 104 -213 0 -22 -189 -71
-373 -95 -44 -6 -47 -5 -40 12 3 10 11 22 17 26 7 5 7 8 -1 8 -8 0 -5 8 7 20
18 18 59 32 102 34 20 0 16 28 -13 92 -19 41 -188 213 -339 345 -195 171 -404
279 -690 358 -218 59 -286 71 -476 80 -296 14 -502 -10 -791 -93 -433 -125
-888 -437 -1137 -781 -162 -224 -217 -331 -277 -539 -57 -199 -75 -356 -59
-544 28 -348 154 -646 387 -918 128 -150 335 -327 519 -442 94 -59 130 -73
120 -47 -3 10 -9 92 -13 184 -12 329 59 591 234 859 96 147 274 328 424 430
115 78 437 217 659 285 221 68 556 165 760 222 113 31 250 69 305 85 100 29
434 119 597 161 65 17 91 20 99 12 8 -8 5 -39 -11 -114 -79 -370 -250 -656
-624 -1039 -99 -102 -219 -216 -267 -255 -271 -218 -335 -274 -450 -393 -131
-134 -213 -248 -265 -362 -41 -93 -73 -153 -132 -250 -28 -47 -55 -91 -59 -98
-15 -25 -92 -41 -319 -68 -185 -21 -255 -25 -364 -21 -130 6 -323 34 -399 58
-77 25 -264 100 -330 134 -225 113 -562 385 -730 590 -112 136 -256 397 -304
550 -81 259 -100 441 -73 690 40 374 162 675 400 990 114 151 358 385 527 507
301 216 697 373 1069 423 278 37 422 39 664 9z m-184 -1179 c62 -32 89 -113
54 -163 -8 -12 -34 -32 -56 -43 -95 -49 -198 13 -198 119 0 33 32 79 64 92 34
14 105 11 136 -5z m-788 -36 c159 -34 222 -139 168 -281 -53 -142 -260 -286
-521 -361 -115 -34 -322 -60 -428 -55 -153 7 -241 67 -241 163 1 69 61 149
183 243 129 100 336 212 475 257 126 41 269 54 364 34z"/>
</g>
</svg>